# xmcd
#
# Track frame offsets:
#	150
#	19787
#	36449
#	52757
#	68407
#	86759
#
# Disc length: 1375 seconds
# Revision: 0
# Processed by: cddbd v1.5.2PL0 Copyright (c) Steve Scherf et al.
# Submitted via: dBpowerAMP V12.0
#
DISCID=41055d06
DTITLE=Strangers You Know - Loosen Up The Leash
DYEAR=2016
DGENRE=Rock
TTITLE0=Tied
TTITLE1=Believe In Me
TTITLE2=Middle
TTITLE3=Tell Me I'm Alright
TTITLE4=Used
TTITLE5=Sparrow Head
EXTD=
EXTT0=
EXTT1=
EXTT2=
EXTT3=
EXTT4=
EXTT5=
PLAYORDER=
